<svg version="1.1" id="Layer_1" xmlns="http://www.w3.org/2000/svg" xmlns:xlink="http://www.w3.org/1999/xlink" x="0px" y="0px"
	 width="100%" viewBox="0 0 1080 1080" enable-background="new 0 0 1080 1080" xml:space="preserve">
<path fill="#000000" opacity="1.000000" stroke="none" 
	d="
M522.000000,1081.000000 
	C348.020020,1081.000000 174.540039,1081.000000 1.030031,1081.000000 
	C1.030031,721.061584 1.030031,361.123138 1.030031,1.092345 
	C360.896881,1.092345 720.793762,1.092345 1080.845337,1.092345 
	C1080.845337,360.999939 1080.845337,720.999939 1080.845337,1081.000000 
	C894.789307,1081.000000 708.644653,1081.000000 522.000000,1081.000000 
M468.983063,746.614197 
	C473.163116,747.814880 477.283051,749.319336 481.534180,750.160583 
	C495.391266,752.902527 509.203827,756.516724 523.209045,757.677734 
	C536.842102,758.807861 550.806396,758.317261 564.414001,756.728760 
	C578.854370,755.043091 593.331055,752.206238 607.287537,748.140808 
	C636.766541,739.553772 662.770935,724.140930 685.611145,703.752258 
	C699.471619,691.379456 711.756653,677.427917 722.065552,661.841187 
	C734.142639,643.581055 743.017273,623.891602 749.566284,603.015259 
	C755.870544,582.918884 758.549805,562.233582 758.538818,541.419495 
	C758.531067,526.795288 756.182129,512.085510 753.895508,497.568787 
	C750.104065,473.498535 740.877869,451.192322 728.637451,430.322815 
	C715.995728,408.768982 699.701843,390.129150 680.579895,373.871857 
	C667.363037,362.634979 653.118591,353.090576 637.631958,345.501587 
	C624.501221,339.067017 611.063721,333.228119 596.449951,330.700195 
	C584.763672,328.678650 573.191101,324.893768 561.469238,324.439270 
	C543.150085,323.728943 524.745667,322.820831 506.363556,325.824615 
	C485.302094,329.266266 465.164215,335.326050 446.076599,344.629822 
	C417.086945,358.760040 392.365356,378.333710 371.912201,403.441711 
	C355.888458,423.112274 343.692261,444.801880 335.274292,468.623108 
	C329.043518,486.254944 324.572571,504.338470 324.031586,523.160095 
	C323.797150,531.317017 323.739655,539.497131 324.069672,547.647766 
	C324.509552,558.510620 324.329102,569.558105 326.331024,580.164673 
	C330.414368,601.799194 337.529602,622.523132 347.857178,642.143799 
	C358.272095,661.930298 371.493286,679.612671 387.212036,695.299255 
	C399.939880,708.001038 413.883392,719.563904 429.794098,728.111572 
	C442.267456,734.812500 455.470428,740.155273 468.983063,746.614197 
z"/>
<path fill="#1081F5" opacity="1.000000" stroke="none" 
	d="
M468.666138,746.357849 
	C455.470428,740.155273 442.267456,734.812500 429.794098,728.111572 
	C413.883392,719.563904 399.939880,708.001038 387.212036,695.299255 
	C371.493286,679.612671 358.272095,661.930298 347.857178,642.143799 
	C337.529602,622.523132 330.414368,601.799194 326.331024,580.164673 
	C324.329102,569.558105 324.509552,558.510620 324.069672,547.647766 
	C323.739655,539.497131 323.797150,531.317017 324.031586,523.160095 
	C324.572571,504.338470 329.043518,486.254944 335.274292,468.623108 
	C343.692261,444.801880 355.888458,423.112274 371.912201,403.441711 
	C392.365356,378.333710 417.086945,358.760040 446.076599,344.629822 
	C465.164215,335.326050 485.302094,329.266266 506.363556,325.824615 
	C524.745667,322.820831 543.150085,323.728943 561.469238,324.439270 
	C573.191101,324.893768 584.763672,328.678650 596.449951,330.700195 
	C611.063721,333.228119 624.501221,339.067017 637.631958,345.501587 
	C653.118591,353.090576 667.363037,362.634979 680.579895,373.871857 
	C699.701843,390.129150 715.995728,408.768982 728.637451,430.322815 
	C740.877869,451.192322 750.104065,473.498535 753.895508,497.568787 
	C756.182129,512.085510 758.531067,526.795288 758.538818,541.419495 
	C758.549805,562.233582 755.870544,582.918884 749.566284,603.015259 
	C743.017273,623.891602 734.142639,643.581055 722.065552,661.841187 
	C711.756653,677.427917 699.471619,691.379456 685.611145,703.752258 
	C662.770935,724.140930 636.766541,739.553772 607.287537,748.140808 
	C593.331055,752.206238 578.854370,755.043091 564.414001,756.728760 
	C550.806396,758.317261 536.842102,758.807861 523.209045,757.677734 
	C509.203827,756.516724 495.391266,752.902527 481.534180,750.160583 
	C477.283051,749.319336 473.163116,747.814880 468.666138,746.357849 
M539.771851,754.003174 
	C550.461853,753.320862 561.320679,753.593018 571.803223,751.738342 
	C588.591003,748.768066 605.164673,744.498413 620.997314,737.893860 
	C646.080322,727.430481 668.814697,713.249573 688.139771,694.067444 
	C695.830078,686.434082 702.810974,678.036133 709.661743,669.617493 
	C723.450928,652.672485 733.429443,633.477234 740.808594,613.037781 
	C746.870667,596.246399 750.609009,578.895386 752.189819,560.969421 
	C753.785645,542.873474 753.727356,524.813782 750.654236,507.092102 
	C748.133301,492.554932 743.608276,478.249084 738.772278,464.255157 
	C730.282349,439.688110 716.476318,418.007538 699.113586,398.808990 
	C685.505432,383.762054 670.199768,370.551727 652.769592,359.833008 
	C634.935242,348.865723 615.967041,340.630859 595.868713,335.151550 
	C580.114502,330.856506 563.978638,328.194550 547.581726,328.062622 
	C539.492065,327.997498 531.346680,328.215057 523.315979,329.108246 
	C512.985168,330.257294 502.535858,331.414062 492.517548,334.025146 
	C480.204773,337.234222 468.158020,341.611359 456.223114,346.088379 
	C437.956421,352.940582 421.534210,363.244873 406.868378,375.932007 
	C396.358673,385.023773 386.219940,394.822144 377.428345,405.545441 
	C368.329803,416.643250 359.940857,428.652771 353.291046,441.337891 
	C346.267822,454.735168 341.031738,469.186951 336.170776,483.568756 
	C330.719269,499.697693 328.825470,516.670288 328.097046,533.627991 
	C327.347931,551.068176 329.340179,568.323608 332.904602,585.460938 
	C338.062378,610.258972 347.545013,633.226318 361.100677,654.504089 
	C374.013794,674.773438 389.885712,692.397156 408.824005,707.339600 
	C423.826141,719.176208 439.895203,729.073730 457.563965,736.271606 
	C469.427643,741.104553 481.253754,746.131226 494.083496,748.100464 
	C501.162689,749.187073 508.141327,750.972839 515.236267,751.901245 
	C523.062561,752.925415 530.970154,753.328491 539.771851,754.003174 
z"/>
<path fill="#000000" opacity="1.000000" stroke="none" 
	d="
M539.307129,754.002686 
	C530.970154,753.328491 523.062561,752.925415 515.236267,751.901245 
	C508.141327,750.972839 501.162689,749.187073 494.083496,748.100464 
	C481.253754,746.131226 469.427643,741.104553 457.563965,736.271606 
	C439.895203,729.073730 423.826141,719.176208 408.824005,707.339600 
	C389.885712,692.397156 374.013794,674.773438 361.100677,654.504089 
	C347.545013,633.226318 338.062378,610.258972 332.904602,585.460938 
	C329.340179,568.323608 327.347931,551.068176 328.097046,533.627991 
	C328.825470,516.670288 330.719269,499.697693 336.170776,483.568756 
	C341.031738,469.186951 346.267822,454.735168 353.291046,441.337891 
	C359.940857,428.652771 368.329803,416.643250 377.428345,405.545441 
	C386.219940,394.822144 396.358673,385.023773 406.868378,375.932007 
	C421.534210,363.244873 437.956421,352.940582 456.223114,346.088379 
	C468.158020,341.611359 480.204773,337.234222 492.517548,334.025146 
	C502.535858,331.414062 512.985168,330.257294 523.315979,329.108246 
	C531.346680,328.215057 539.492065,327.997498 547.581726,328.062622 
	C563.978638,328.194550 580.114502,330.856506 595.868713,335.151550 
	C615.967041,340.630859 634.935242,348.865723 652.769592,359.833008 
	C670.199768,370.551727 685.505432,383.762054 699.113586,398.808990 
	C716.476318,418.007538 730.282349,439.688110 738.772278,464.255157 
	C743.608276,478.249084 748.133301,492.554932 750.654236,507.092102 
	C753.727356,524.813782 753.785645,542.873474 752.189819,560.969421 
	C750.609009,578.895386 746.870667,596.246399 740.808594,613.037781 
	C733.429443,633.477234 723.450928,652.672485 709.661743,669.617493 
	C702.810974,678.036133 695.830078,686.434082 688.139771,694.067444 
	C668.814697,713.249573 646.080322,727.430481 620.997314,737.893860 
	C605.164673,744.498413 588.591003,748.768066 571.803223,751.738342 
	C561.320679,753.593018 550.461853,753.320862 539.307129,754.002686 
M422.068420,586.232239 
	C423.045166,591.841614 423.870697,597.482849 425.043793,603.050842 
	C426.088715,608.010437 430.884125,609.267700 434.629425,605.906799 
	C439.524292,601.514221 444.292206,596.905090 449.612518,593.081909 
	C455.381805,588.936157 461.554901,585.372986 469.348206,586.655579 
	C483.880432,589.047363 496.467529,596.635925 510.086517,601.422913 
	C520.927795,605.233521 532.012390,609.329651 543.301147,610.669739 
	C562.169800,612.909607 579.941467,607.506714 596.324463,597.932190 
	C624.621887,581.394531 646.200073,558.511780 659.848206,528.676208 
	C662.881836,522.044617 664.009338,514.309998 664.797852,506.952850 
	C665.472900,500.655426 662.336487,497.667175 656.219604,495.623718 
	C649.925476,493.521149 644.377991,496.371979 639.468994,499.081268 
	C626.691528,506.133148 614.397949,514.061829 600.488892,522.504028 
	C602.009094,523.193115 602.764343,523.561646 603.539185,523.882751 
	C616.649048,529.315491 617.963257,546.458496 604.559021,555.293762 
	C593.003906,562.910156 580.352051,564.461792 567.161133,565.044189 
	C558.624146,565.421143 550.086365,566.095642 541.594238,567.042664 
	C537.100525,567.543884 532.736145,569.152771 528.245605,569.762085 
	C526.632385,569.981018 524.820374,568.735474 523.099121,568.158325 
	C524.141296,566.892639 524.976501,565.313660 526.284058,564.449646 
	C527.580505,563.593018 529.328735,563.189758 530.920227,563.045959 
	C546.455566,561.642822 561.989502,560.200562 577.544617,559.049561 
	C587.591858,558.306030 596.762756,555.297058 604.471924,548.868286 
	C608.034607,545.897400 610.086609,541.783691 608.284363,536.627686 
	C605.778564,529.458740 597.179871,525.498718 589.135681,527.252991 
	C581.350037,528.950928 573.412781,530.344116 565.476074,530.865662 
	C553.850464,531.629456 542.700195,528.905212 532.309387,523.631165 
	C523.600708,519.210876 515.284119,513.972656 506.419189,509.915375 
	C489.429352,502.139496 471.993347,501.168549 454.616394,508.810028 
	C439.488525,515.462402 429.969208,528.742371 418.696411,539.925537 
	C418.288147,540.330505 418.032379,541.101746 418.050751,541.691528 
	C418.246399,547.967041 418.229126,554.267578 418.827942,560.507629 
	C419.624634,568.809998 420.916107,577.064819 422.068420,586.232239 
M616.005066,456.500000 
	C616.005066,437.346436 616.032349,418.192810 615.992493,399.039337 
	C615.975098,390.686157 612.298767,387.001312 604.191162,387.001007 
	C574.877869,386.999939 545.564636,387.000153 516.251343,387.000671 
	C507.633911,387.000824 503.999054,390.518402 503.988647,399.105591 
	C503.954803,427.086395 503.986084,455.067291 503.968750,483.048157 
	C503.964447,489.954926 508.389038,497.257385 518.052002,497.130859 
	C546.028076,496.764496 574.012024,497.005768 601.992920,496.999329 
	C610.862976,496.997314 615.940735,491.941406 615.994019,482.982513 
	C616.044556,474.488617 616.005005,465.994202 616.005066,456.500000 
M481.379883,642.824829 
	C477.148285,641.457825 473.044037,641.025635 469.518646,644.554260 
	C467.696899,639.805359 464.190796,642.723389 461.364014,642.131958 
	C461.364014,651.317017 461.364014,660.039124 461.364014,668.762085 
	C464.666504,668.762085 467.604401,668.762085 471.029724,668.762085 
	C471.029724,663.919983 470.827026,659.284485 471.140747,654.684143 
	C471.249115,653.095032 472.642181,651.593567 473.448425,650.052063 
	C474.298584,651.553223 475.776093,653.011719 475.881805,654.563599 
	C476.204498,659.299622 475.998932,664.071533 475.998932,668.742859 
	C479.705872,668.742859 482.644104,668.742859 485.313110,668.742859 
	C487.900238,662.658020 482.922668,655.199890 488.335022,650.058228 
	C489.238556,650.108521 490.142090,650.158875 491.045624,650.209229 
	C491.529022,656.415344 492.012451,662.621521 492.488831,668.737732 
	C495.006104,668.737732 497.276398,668.737732 499.987152,668.737732 
	C499.987152,661.361572 500.012268,654.237183 499.946991,647.113708 
	C499.940704,646.425720 499.514069,645.622131 499.044739,645.076965 
	C495.816467,641.327576 489.724976,640.344299 486.207916,643.854248 
	C483.605164,646.451660 483.366547,643.892090 481.379883,642.824829 
M416.450836,660.949829 
	C418.992004,668.091370 423.800446,670.953308 431.460480,668.418640 
	C429.436890,664.481873 427.299194,660.323181 425.077881,656.001831 
	C425.325439,655.719971 425.586945,655.347046 425.919434,655.054871 
	C430.255249,651.243896 431.042694,646.301575 429.535980,641.179016 
	C428.180817,636.571472 423.896393,634.645996 419.643158,634.175598 
	C414.272980,633.581665 408.787262,634.032288 403.376678,634.032288 
	C403.376678,646.020203 403.376678,657.411011 403.376678,668.728149 
	C406.360046,668.728149 408.965759,668.728149 412.048645,668.728149 
	C412.048645,664.731140 412.048645,660.994141 412.048645,657.257080 
	C412.471649,657.060974 412.894684,656.864868 413.317688,656.668701 
	C414.227783,657.870544 415.137909,659.072388 416.450836,660.949829 
M605.858765,666.593872 
	C605.046875,664.379028 604.531677,661.961548 603.242004,660.072998 
	C602.855957,659.507690 600.062500,660.001343 598.797607,660.739380 
	C595.898743,662.430786 593.597290,661.875854 591.275391,659.815125 
	C587.453491,656.423096 586.660889,649.916077 589.638245,645.904297 
	C593.225342,641.070923 595.701965,640.810852 601.631287,644.605591 
	C602.792847,643.519836 604.422852,642.640564 604.958374,641.318054 
	C605.515930,639.941284 605.568298,637.051941 604.885620,636.704834 
	C601.754578,635.113647 598.246826,633.080688 594.950439,633.206238 
	C581.935791,633.701660 573.520142,649.718689 580.139282,661.094604 
	C581.694885,663.768250 584.134460,666.284302 586.763916,667.905029 
	C592.939209,671.711182 599.260498,670.411865 605.858765,666.593872 
M617.429138,669.998413 
	C622.163330,669.484253 626.897522,668.970154 631.987610,668.417419 
	C631.987610,661.958801 632.110718,655.509094 631.890747,649.071167 
	C631.842896,647.670471 630.818115,646.083984 629.812439,644.973206 
	C625.509155,640.220215 616.061707,640.744873 608.957947,646.095825 
	C610.252258,647.714172 611.546936,649.332947 612.924133,651.054932 
	C614.352600,650.701294 615.737305,650.200134 617.159302,650.047974 
	C618.793030,649.873230 620.459778,650.007507 622.112183,650.007507 
	C619.945007,651.567017 617.591736,652.349060 615.196472,652.968872 
	C610.440125,654.199524 608.489380,657.380127 609.022949,663.536743 
	C609.417786,668.092041 612.220093,670.003540 617.429138,669.998413 
M553.375977,647.121582 
	C547.588074,657.218140 552.485962,667.196533 559.737732,669.331848 
	C565.281372,670.964233 570.173889,669.731140 575.184082,667.172546 
	C574.031433,663.201721 572.861877,660.525208 567.788574,661.817017 
	C563.373047,662.941345 562.758301,662.141052 561.821655,658.996765 
	C564.191956,658.996765 566.512451,658.996765 568.833008,658.996765 
	C571.108459,658.996765 573.383911,658.996765 575.592773,658.996765 
	C576.510803,650.306213 574.633240,644.750122 569.414490,642.917480 
	C563.613892,640.880432 557.837646,640.996338 553.375977,647.121582 
M656.984802,651.713135 
	C655.183044,656.777527 657.393066,664.950378 661.308655,667.702942 
	C666.355286,671.250793 674.789673,670.858948 679.924316,666.848206 
	C679.610291,662.572083 677.951538,660.547791 673.183350,661.843201 
	C671.345947,662.342407 669.067932,661.220032 666.990662,660.836487 
	C667.093201,660.223206 667.195801,659.609985 667.298340,658.996765 
	C669.556458,658.996765 671.814575,658.996765 674.072693,658.996765 
	C676.326843,658.996765 678.581055,658.996765 681.000244,658.996765 
	C681.000244,656.436584 681.020203,654.611389 680.996643,652.786743 
	C680.910889,646.154175 676.640686,642.285034 669.961914,641.922363 
	C663.093384,641.549255 659.478088,645.218506 656.984802,651.713135 
M507.449432,665.986389 
	C516.540833,673.625671 528.330750,670.500122 530.815430,658.492432 
	C532.032166,652.612305 527.715942,643.369446 522.882629,642.041016 
	C514.294434,639.680481 507.747864,643.192871 504.841553,651.001160 
	C502.829803,656.406067 504.743286,660.829651 507.449432,665.986389 
M432.924438,657.888977 
	C433.273132,669.359375 443.389191,673.366272 456.057098,666.917236 
	C455.144379,663.037048 453.638519,660.548828 448.749664,661.830261 
	C446.889648,662.317810 444.573944,661.067017 442.465942,660.608521 
	C442.558014,660.070618 442.650085,659.532715 442.742157,658.994812 
	C446.170410,658.994812 449.608337,659.142395 453.022003,658.919373 
	C454.318848,658.834656 456.136993,658.245544 456.717468,657.283142 
	C458.410767,654.475830 455.725952,646.681946 452.516754,644.049805 
	C449.670746,641.715576 442.297943,641.246643 439.510986,642.956787 
	C434.153625,646.244324 432.081726,651.021362 432.924438,657.888977 
M531.001831,645.616821 
	C531.041138,646.780090 530.714050,648.772339 531.177002,648.976990 
	C535.307739,650.802429 533.715759,654.364929 533.981079,657.342041 
	C534.069458,658.333191 533.740295,659.431396 534.054749,660.320496 
	C535.443726,664.247070 535.412903,669.391113 541.198914,669.948364 
	C543.948181,670.213135 546.744019,669.993896 549.668457,669.993896 
	C549.668457,666.987732 549.668457,664.603760 549.668457,662.148987 
	C547.723389,662.019775 546.106201,661.912292 544.284973,661.791260 
	C544.284973,657.827332 544.284973,654.095886 544.284973,650.285217 
	C546.292480,650.063049 548.032776,649.870422 549.638184,649.692749 
	C549.638184,646.936646 549.638184,644.542358 549.638184,642.182495 
	C547.642700,642.032410 546.023865,641.910706 544.264526,641.778381 
	C544.069519,639.770142 543.899658,638.021057 543.719604,636.166687 
	C541.089722,636.166687 538.804199,636.166687 536.518738,636.166687 
	C536.765198,636.493530 537.011658,636.820435 537.258179,637.147278 
	C535.369385,638.892639 533.413086,640.573120 531.635925,642.425659 
	C531.149780,642.932495 531.201355,643.955322 531.001831,645.616821 
M650.262390,650.315125 
	C652.038818,650.123901 653.815186,649.932678 655.733887,649.726074 
	C655.733887,647.168396 655.733887,644.762146 655.733887,641.156372 
	C652.350403,642.223450 649.554749,643.776062 646.748352,643.795593 
	C644.106934,643.814087 641.454285,642.216003 638.299072,641.159119 
	C638.299072,651.192627 638.299072,659.908508 638.299072,668.650696 
	C641.321472,668.650696 644.032471,668.650696 647.003662,668.650696 
	C647.003662,664.499084 646.707458,660.658630 647.121338,656.896301 
	C647.348022,654.835754 648.773987,652.907166 650.262390,650.315125 
z"/>
<path fill="#F11D10" opacity="1.000000" stroke="none" 
	d="
M422.031738,585.786133 
	C420.916107,577.064819 419.624634,568.809998 418.827942,560.507629 
	C418.229126,554.267578 418.246399,547.967041 418.050751,541.691528 
	C418.032379,541.101746 418.288147,540.330505 418.696411,539.925537 
	C429.969208,528.742371 439.488525,515.462402 454.616394,508.810028 
	C471.993347,501.168549 489.429352,502.139496 506.419189,509.915375 
	C515.284119,513.972656 523.600708,519.210876 532.309387,523.631165 
	C542.700195,528.905212 553.850464,531.629456 565.476074,530.865662 
	C573.412781,530.344116 581.350037,528.950928 589.135681,527.252991 
	C597.179871,525.498718 605.778564,529.458740 608.284363,536.627686 
	C610.086609,541.783691 608.034607,545.897400 604.471924,548.868286 
	C596.762756,555.297058 587.591858,558.306030 577.544617,559.049561 
	C561.989502,560.200562 546.455566,561.642822 530.920227,563.045959 
	C529.328735,563.189758 527.580505,563.593018 526.284058,564.449646 
	C524.976501,565.313660 524.141296,566.892639 523.099121,568.158325 
	C524.820374,568.735474 526.632385,569.981018 528.245605,569.762085 
	C532.736145,569.152771 537.100525,567.543884 541.594238,567.042664 
	C550.086365,566.095642 558.624146,565.421143 567.161133,565.044189 
	C580.352051,564.461792 593.003906,562.910156 604.559021,555.293762 
	C617.963257,546.458496 616.649048,529.315491 603.539185,523.882751 
	C602.764343,523.561646 602.009094,523.193115 600.488892,522.504028 
	C614.397949,514.061829 626.691528,506.133148 639.468994,499.081268 
	C644.377991,496.371979 649.925476,493.521149 656.219604,495.623718 
	C662.336487,497.667175 665.472900,500.655426 664.797852,506.952850 
	C664.009338,514.309998 662.881836,522.044617 659.848206,528.676208 
	C646.200073,558.511780 624.621887,581.394531 596.324463,597.932190 
	C579.941467,607.506714 562.169800,612.909607 543.301147,610.669739 
	C532.012390,609.329651 520.927795,605.233521 510.086517,601.422913 
	C496.467529,596.635925 483.880432,589.047363 469.348206,586.655579 
	C461.554901,585.372986 455.381805,588.936157 449.612518,593.081909 
	C444.292206,596.905090 439.524292,601.514221 434.629425,605.906799 
	C430.884125,609.267700 426.088715,608.010437 425.043793,603.050842 
	C423.870697,597.482849 423.045166,591.841614 422.031738,585.786133 
z"/>
<path fill="#F11D10" opacity="1.000000" stroke="none" 
	d="
M616.005066,457.000000 
	C616.005005,465.994202 616.044556,474.488617 615.994019,482.982513 
	C615.940735,491.941406 610.862976,496.997314 601.992920,496.999329 
	C574.012024,497.005768 546.028076,496.764496 518.052002,497.130859 
	C508.389038,497.257385 503.964447,489.954926 503.968750,483.048157 
	C503.986084,455.067291 503.954803,427.086395 503.988647,399.105591 
	C503.999054,390.518402 507.633911,387.000824 516.251343,387.000671 
	C545.564636,387.000153 574.877869,386.999939 604.191162,387.001007 
	C612.298767,387.001312 615.975098,390.686157 615.992493,399.039337 
	C616.032349,418.192810 616.005066,437.346436 616.005066,457.000000 
M548.986084,409.089539 
	C548.324402,410.618042 547.178589,412.119720 547.092224,413.680084 
	C546.837097,418.286804 547.001099,422.916748 547.001099,428.000977 
	C541.709045,428.000977 536.916870,428.058167 532.126892,427.982025 
	C528.588379,427.925812 526.935974,429.511871 526.982971,433.079620 
	C527.055481,438.578308 527.172607,444.085785 526.941833,449.575714 
	C526.787598,453.246033 528.411743,454.164215 531.724670,454.039001 
	C536.665405,453.852295 541.618530,453.990570 547.002563,453.990570 
	C547.002563,459.669525 547.107971,464.800598 546.962524,469.924591 
	C546.876831,472.943359 548.039307,474.109894 551.066101,474.036621 
	C556.895630,473.895477 562.737244,473.832367 568.561646,474.055725 
	C572.216003,474.195862 573.167419,472.598419 573.043213,469.275726 
	C572.858276,464.330048 572.995300,459.372345 572.995300,453.989166 
	C578.622681,453.989166 583.751099,453.889648 588.873108,454.027313 
	C591.843506,454.107117 593.117310,453.033722 593.037415,449.966003 
	C592.894409,444.470123 592.894958,438.965240 593.032104,433.469055 
	C593.134888,429.352295 591.207764,427.834869 587.265503,427.964478 
	C582.654907,428.116058 578.035400,427.999908 572.993774,427.999908 
	C572.993774,422.664368 572.885132,417.865295 573.033142,413.074158 
	C573.126770,410.043152 571.926208,408.906555 568.915039,408.971436 
	C562.585022,409.107880 556.250183,409.018738 548.986084,409.089539 
z"/>
<path fill="#F11010" opacity="1.000000" stroke="none" 
	d="
M481.777222,642.936523 
	C483.366547,643.892090 483.605164,646.451660 486.207916,643.854248 
	C489.724976,640.344299 495.816467,641.327576 499.044739,645.076965 
	C499.514069,645.622131 499.940704,646.425720 499.946991,647.113708 
	C500.012268,654.237183 499.987152,661.361572 499.987152,668.737732 
	C497.276398,668.737732 495.006104,668.737732 492.488831,668.737732 
	C492.012451,662.621521 491.529022,656.415344 491.045624,650.209229 
	C490.142090,650.158875 489.238556,650.108521 488.335022,650.058228 
	C482.922668,655.199890 487.900238,662.658020 485.313110,668.742859 
	C482.644104,668.742859 479.705872,668.742859 475.998932,668.742859 
	C475.998932,664.071533 476.204498,659.299622 475.881805,654.563599 
	C475.776093,653.011719 474.298584,651.553223 473.448425,650.052063 
	C472.642181,651.593567 471.249115,653.095032 471.140747,654.684143 
	C470.827026,659.284485 471.029724,663.919983 471.029724,668.762085 
	C467.604401,668.762085 464.666504,668.762085 461.364014,668.762085 
	C461.364014,660.039124 461.364014,651.317017 461.364014,642.131958 
	C464.190796,642.723389 467.696899,639.805359 469.518646,644.554260 
	C473.044037,641.025635 477.148285,641.457825 481.777222,642.936523 
z"/>
<path fill="#F21010" opacity="1.000000" stroke="none" 
	d="
M416.249420,660.612061 
	C415.137909,659.072388 414.227783,657.870544 413.317688,656.668701 
	C412.894684,656.864868 412.471649,657.060974 412.048645,657.257080 
	C412.048645,660.994141 412.048645,664.731140 412.048645,668.728149 
	C408.965759,668.728149 406.360046,668.728149 403.376678,668.728149 
	C403.376678,657.411011 403.376678,646.020203 403.376678,634.032288 
	C408.787262,634.032288 414.272980,633.581665 419.643158,634.175598 
	C423.896393,634.645996 428.180817,636.571472 429.535980,641.179016 
	C431.042694,646.301575 430.255249,651.243896 425.919434,655.054871 
	C425.586945,655.347046 425.325439,655.719971 425.077881,656.001831 
	C427.299194,660.323181 429.436890,664.481873 431.460480,668.418640 
	C423.800446,670.953308 418.992004,668.091370 416.249420,660.612061 
M416.884521,642.048340 
	C415.312195,642.118591 413.739838,642.188782 412.238464,642.255859 
	C412.238464,645.084717 412.238464,647.368042 412.238464,649.821350 
	C416.741699,650.403992 419.830170,649.222717 420.869720,644.716797 
	C419.742493,643.849854 418.707703,643.054016 416.884521,642.048340 
z"/>
<path fill="#F21010" opacity="1.000000" stroke="none" 
	d="
M605.594604,666.862793 
	C599.260498,670.411865 592.939209,671.711182 586.763916,667.905029 
	C584.134460,666.284302 581.694885,663.768250 580.139282,661.094604 
	C573.520142,649.718689 581.935791,633.701660 594.950439,633.206238 
	C598.246826,633.080688 601.754578,635.113647 604.885620,636.704834 
	C605.568298,637.051941 605.515930,639.941284 604.958374,641.318054 
	C604.422852,642.640564 602.792847,643.519836 601.631287,644.605591 
	C595.701965,640.810852 593.225342,641.070923 589.638245,645.904297 
	C586.660889,649.916077 587.453491,656.423096 591.275391,659.815125 
	C593.597290,661.875854 595.898743,662.430786 598.797607,660.739380 
	C600.062500,660.001343 602.855957,659.507690 603.242004,660.072998 
	C604.531677,661.961548 605.046875,664.379028 605.594604,666.862793 
z"/>
<path fill="#F21010" opacity="1.000000" stroke="none" 
	d="
M617.007812,669.998352 
	C612.220093,670.003540 609.417786,668.092041 609.022949,663.536743 
	C608.489380,657.380127 610.440125,654.199524 615.196472,652.968872 
	C617.591736,652.349060 619.945007,651.567017 622.112183,650.007507 
	C620.459778,650.007507 618.793030,649.873230 617.159302,650.047974 
	C615.737305,650.200134 614.352600,650.701294 612.924133,651.054932 
	C611.546936,649.332947 610.252258,647.714172 608.957947,646.095825 
	C616.061707,640.744873 625.509155,640.220215 629.812439,644.973206 
	C630.818115,646.083984 631.842896,647.670471 631.890747,649.071167 
	C632.110718,655.509094 631.987610,661.958801 631.987610,668.417419 
	C626.897522,668.970154 622.163330,669.484253 617.007812,669.998352 
z"/>
<path fill="#F21010" opacity="1.000000" stroke="none" 
	d="
M553.655151,646.855530 
	C557.837646,640.996338 563.613892,640.880432 569.414490,642.917480 
	C574.633240,644.750122 576.510803,650.306213 575.592773,658.996765 
	C573.383911,658.996765 571.108459,658.996765 568.833008,658.996765 
	C566.512451,658.996765 564.191956,658.996765 561.821655,658.996765 
	C562.758301,662.141052 563.373047,662.941345 567.788574,661.817017 
	C572.861877,660.525208 574.031433,663.201721 575.184082,667.172546 
	C570.173889,669.731140 565.281372,670.964233 559.737732,669.331848 
	C552.485962,667.196533 547.588074,657.218140 553.655151,646.855530 
z"/>
<path fill="#F21010" opacity="1.000000" stroke="none" 
	d="
M657.016785,651.307983 
	C659.478088,645.218506 663.093384,641.549255 669.961914,641.922363 
	C676.640686,642.285034 680.910889,646.154175 680.996643,652.786743 
	C681.020203,654.611389 681.000244,656.436584 681.000244,658.996765 
	C678.581055,658.996765 676.326843,658.996765 674.072693,658.996765 
	C671.814575,658.996765 669.556458,658.996765 667.298340,658.996765 
	C667.195801,659.609985 667.093201,660.223206 666.990662,660.836487 
	C669.067932,661.220032 671.345947,662.342407 673.183350,661.843201 
	C677.951538,660.547791 679.610291,662.572083 679.928101,666.842896 
	C674.789673,670.858948 666.355286,671.250793 661.308655,667.702942 
	C657.393066,664.950378 655.183044,656.777527 657.016785,651.307983 
z"/>
<path fill="#F21010" opacity="1.000000" stroke="none" 
	d="
M507.184875,665.699646 
	C504.743286,660.829651 502.829803,656.406067 504.841553,651.001160 
	C507.747864,643.192871 514.294434,639.680481 522.882629,642.041016 
	C527.715942,643.369446 532.032166,652.612305 530.815430,658.492432 
	C528.330750,670.500122 516.540833,673.625671 507.184875,665.699646 
M521.000549,656.300476 
	C521.252014,652.338135 521.137329,648.725342 515.050781,650.473633 
	C514.711487,652.599976 513.827332,654.889343 514.171875,656.975952 
	C514.464966,658.751282 516.173645,660.292908 517.256042,661.937927 
	C518.503845,660.343994 519.751587,658.750061 521.000549,656.300476 
z"/>
<path fill="#F21010" opacity="1.000000" stroke="none" 
	d="
M432.757446,657.503052 
	C432.081726,651.021362 434.153625,646.244324 439.510986,642.956787 
	C442.297943,641.246643 449.670746,641.715576 452.516754,644.049805 
	C455.725952,646.681946 458.410767,654.475830 456.717468,657.283142 
	C456.136993,658.245544 454.318848,658.834656 453.022003,658.919373 
	C449.608337,659.142395 446.170410,658.994812 442.742157,658.994812 
	C442.650085,659.532715 442.558014,660.070618 442.465942,660.608521 
	C444.573944,661.067017 446.889648,662.317810 448.749664,661.830261 
	C453.638519,660.548828 455.144379,663.037048 456.057098,666.917236 
	C443.389191,673.366272 433.273132,669.359375 432.757446,657.503052 
z"/>
<path fill="#F11010" opacity="1.000000" stroke="none" 
	d="
M531.004028,645.179077 
	C531.201355,643.955322 531.149780,642.932495 531.635925,642.425659 
	C533.413086,640.573120 535.369385,638.892639 537.258179,637.147278 
	C537.011658,636.820435 536.765198,636.493530 536.518738,636.166687 
	C538.804199,636.166687 541.089722,636.166687 543.719604,636.166687 
	C543.899658,638.021057 544.069519,639.770142 544.264526,641.778381 
	C546.023865,641.910706 547.642700,642.032410 549.638184,642.182495 
	C549.638184,644.542358 549.638184,646.936646 549.638184,649.692749 
	C548.032776,649.870422 546.292480,650.063049 544.284973,650.285217 
	C544.284973,654.095886 544.284973,657.827332 544.284973,661.791260 
	C546.106201,661.912292 547.723389,662.019775 549.668457,662.148987 
	C549.668457,664.603760 549.668457,666.987732 549.668457,669.993896 
	C546.744019,669.993896 543.948181,670.213135 541.198914,669.948364 
	C535.412903,669.391113 535.443726,664.247070 534.054749,660.320496 
	C533.740295,659.431396 534.069458,658.333191 533.981079,657.342041 
	C533.715759,654.364929 535.307739,650.802429 531.177002,648.976990 
	C530.714050,648.772339 531.041138,646.780090 531.004028,645.179077 
z"/>
<path fill="#F11010" opacity="1.000000" stroke="none" 
	d="
M649.960754,650.617065 
	C648.773987,652.907166 647.348022,654.835754 647.121338,656.896301 
	C646.707458,660.658630 647.003662,664.499084 647.003662,668.650696 
	C644.032471,668.650696 641.321472,668.650696 638.299072,668.650696 
	C638.299072,659.908508 638.299072,651.192627 638.299072,641.159119 
	C641.454285,642.216003 644.106934,643.814087 646.748352,643.795593 
	C649.554749,643.776062 652.350403,642.223450 655.733887,641.156372 
	C655.733887,644.762146 655.733887,647.168396 655.733887,649.726074 
	C653.815186,649.932678 652.038818,650.123901 649.960754,650.617065 
z"/>
<path fill="#000000" opacity="1.000000" stroke="none" 
	d="
M549.451660,409.055847 
	C556.250183,409.018738 562.585022,409.107880 568.915039,408.971436 
	C571.926208,408.906555 573.126770,410.043152 573.033142,413.074158 
	C572.885132,417.865295 572.993774,422.664368 572.993774,427.999908 
	C578.035400,427.999908 582.654907,428.116058 587.265503,427.964478 
	C591.207764,427.834869 593.134888,429.352295 593.032104,433.469055 
	C592.894958,438.965240 592.894409,444.470123 593.037415,449.966003 
	C593.117310,453.033722 591.843506,454.107117 588.873108,454.027313 
	C583.751099,453.889648 578.622681,453.989166 572.995300,453.989166 
	C572.995300,459.372345 572.858276,464.330048 573.043213,469.275726 
	C573.167419,472.598419 572.216003,474.195862 568.561646,474.055725 
	C562.737244,473.832367 556.895630,473.895477 551.066101,474.036621 
	C548.039307,474.109894 546.876831,472.943359 546.962524,469.924591 
	C547.107971,464.800598 547.002563,459.669525 547.002563,453.990570 
	C541.618530,453.990570 536.665405,453.852295 531.724670,454.039001 
	C528.411743,454.164215 526.787598,453.246033 526.941833,449.575714 
	C527.172607,444.085785 527.055481,438.578308 526.982971,433.079620 
	C526.935974,429.511871 528.588379,427.925812 532.126892,427.982025 
	C536.916870,428.058167 541.709045,428.000977 547.001099,428.000977 
	C547.001099,422.916748 546.837097,418.286804 547.092224,413.680084 
	C547.178589,412.119720 548.324402,410.618042 549.451660,409.055847 
z"/>
<path fill="#000000" opacity="1.000000" stroke="none" 
	d="
M417.278687,642.153259 
	C418.707703,643.054016 419.742493,643.849854 420.869720,644.716797 
	C419.830170,649.222717 416.741699,650.403992 412.238464,649.821350 
	C412.238464,647.368042 412.238464,645.084717 412.238464,642.255859 
	C413.739838,642.188782 415.312195,642.118591 417.278687,642.153259 
z"/>
<path fill="#000000" opacity="1.000000" stroke="none" 
	d="
M520.999939,656.728271 
	C519.751587,658.750061 518.503845,660.343994 517.256042,661.937927 
	C516.173645,660.292908 514.464966,658.751282 514.171875,656.975952 
	C513.827332,654.889343 514.711487,652.599976 515.050781,650.473633 
	C521.137329,648.725342 521.252014,652.338135 520.999939,656.728271 
z"/>
</svg>